<?xml version="1.0" encoding="UTF-8"?>
<svg width="100px" height="100px" viewBox="0 0 100 100" version="1.1" xmlns="http://www.w3.org/2000/svg" xmlns:xlink="http://www.w3.org/1999/xlink">
    <!-- Generator: Sketch 55.2 (78181) - https://sketchapp.com -->
    <title>icon-loading</title>
    <desc>Created with Sketch.</desc>
    <g id="icon-loading" stroke="none" stroke-width="1" fill="none" fill-rule="evenodd">
        <path d="M50,100 C22.3857625,100 0,77.6142375 0,50 C0,22.3857625 22.3857625,0 50,0 C77.6142375,0 100,22.3857625 100,50 C100,77.6142375 77.6142375,100 50,100 Z M50,90 C72.09139,90 90,72.09139 90,50 C90,27.90861 72.09139,10 50,10 C27.90861,10 10,27.90861 10,50 C10,72.09139 27.90861,90 50,90 Z" id="base" fill="#D8D8D8"></path>
        <path d="M15,14.6446609 C24.0482203,5.59644063 36.5482203,-7.10542736e-15 50.3553391,-7.10542736e-15 C64.1624578,-7.10542736e-15 76.6624578,5.59644063 85.7106781,14.6446609 L78.6396103,21.7157288 C71.4010341,14.4771525 61.4010341,10 50.3553391,10 C39.3096441,10 29.3096441,14.4771525 22.0710678,21.7157288 L15,14.6446609 Z" id="rotator" fill="#979797"></path>
    </g>
</svg>