<?xml version="1.0" encoding="UTF-8"?>
<svg width="100px" height="100px" viewBox="0 0 100 100" version="1.1" xmlns="http://www.w3.org/2000/svg" xmlns:xlink="http://www.w3.org/1999/xlink">
    <!-- Generator: Sketch 55.2 (78181) - https://sketchapp.com -->
    <title>icon-lock</title>
    <desc>Created with Sketch.</desc>
    <g id="icon-lock" stroke="none" stroke-width="1" fill="none" fill-rule="evenodd">
        <rect id="base" stroke="#D8D8D8" stroke-width="5" x="17.5" y="44.5" width="65" height="53" rx="5"></rect>
        <path d="M48.5,76.5 L51.5,76.5 L51.5,69.4877639 L52.7481851,68.7657278 C54.4389268,67.7876865 55.5,65.987614 55.5,64 C55.5,60.9624339 53.0375661,58.5 50,58.5 C46.9624339,58.5 44.5,60.9624339 44.5,64 C44.5,65.987614 45.5610732,67.7876865 47.2518149,68.7657278 L48.5,69.4877639 L48.5,76.5 Z" id="keyhole" stroke="#D8D8D8" stroke-width="5"></path>
        <path d="M22.0203291,20.4326865 C22.5862561,9.07540456 34.8966367,0 50,0 C65.1033633,0 77.4137439,9.07540456 77.9796709,20.4326865 L78,20.4326923 L78,42.5 L22,42.5 L22,20.4326923 L22.0203288,20.4326923 L22.0203291,20.4326865 Z M32,21.2119857 L32,42.5813953 L68,42.5813953 L68,21.2119857 L67.9869315,21.2119857 C67.6231238,13.8165445 59.7093066,7.90697674 50,7.90697674 C40.2906934,7.90697674 32.3768762,13.8165445 32.0130685,21.2119857 L32,21.2119857 Z" id="handle" fill="#D8D8D8"></path>
    </g>
</svg>