<svg width="32px" height="32px" viewBox="0 0 32 32" role="img" version="1.1" xmlns="http://www.w3.org/2000/svg" xmlns:xlink="http://www.w3.org/1999/xlink">
  <title>Menu Icon</title>
  <path d="M4.04 19.5c1.957 0 3.54-1.568 3.54-3.5s-1.583-3.5-3.54-3.5C2.084 12.5.5 14.068.5 16s1.584 3.5 3.54 3.5zm0 .5C1.81 20 0 18.21 0 16s1.809-4 4.04-4c2.232 0 4.04 1.79 4.04 4s-1.808 4-4.04 4zM16 19.5c1.956 0 3.54-1.568 3.54-3.5s-1.584-3.5-3.54-3.5-3.54 1.568-3.54 3.5 1.584 3.5 3.54 3.5zm0 .5c-2.231 0-4.04-1.79-4.04-4s1.809-4 4.04-4 4.04 1.79 4.04 4-1.809 4-4.04 4zm11.96-.5c1.956 0 3.54-1.568 3.54-3.5s-1.584-3.5-3.54-3.5c-1.957 0-3.54 1.568-3.54 3.5s1.583 3.5 3.54 3.5zm0 .5c-2.232 0-4.04-1.79-4.04-4s1.808-4 4.04-4C30.19 12 32 13.79 32 16s-1.809 4-4.04 4z" fill-rule="nonzero" fill="#000"/>
</svg>
