<?xml version="1.0" standalone="no"?>
<!DOCTYPE svg PUBLIC "-//W3C//DTD SVG 20010904//EN"
 "http://www.w3.org/TR/2001/REC-SVG-20010904/DTD/svg10.dtd">
<svg version="1.0" xmlns="http://www.w3.org/2000/svg"
 width="260.000000pt" height="260.000000pt" viewBox="0 0 260.000000 260.000000"
 preserveAspectRatio="xMidYMid meet">
<metadata>
Created by potrace 1.11, written by Peter Selinger 2001-2013
</metadata>
<g transform="translate(0.000000,260.000000) scale(0.100000,-0.100000)"
fill="#000000" stroke="none">
<path d="M1150 2593 c-322 -49 -549 -161 -766 -377 -263 -264 -388 -574 -379
-946 2 -80 6 -158 10 -175 21 -99 28 -128 51 -200 61 -193 162 -354 318 -510
194 -194 383 -297 651 -357 103 -23 330 -32 435 -17 172 24 373 95 508 180
115 71 188 135 326 282 36 38 128 182 162 255 99 208 134 372 129 597 -2 77
-6 154 -9 170 -4 17 -11 53 -16 80 -29 143 -101 313 -191 450 -64 98 -248 283
-344 347 -159 106 -368 189 -540 215 -40 6 -314 11 -345 6z m423 -236 c83 -22
218 -80 305 -131 13 -8 60 -42 104 -77 179 -141 315 -350 375 -577 23 -84 26
-118 27 -257 1 -88 -3 -178 -7 -200 -68 -353 -287 -642 -602 -796 -149 -73
-267 -101 -445 -105 -157 -4 -263 11 -392 56 -337 119 -599 404 -694 755 -22
83 -27 125 -30 250 -4 199 26 340 106 504 150 304 430 520 765 591 133 28 354
22 488 -13z"/>
<path d="M1610 1826 c-75 -17 -134 -47 -206 -105 l-61 -49 2 56 c1 32 0 63 -3
70 -3 9 -41 12 -143 12 l-139 0 0 -540 0 -541 142 3 143 3 0 359 0 358 30 25
c37 31 125 73 168 81 18 3 58 5 90 5 l57 0 0 139 c0 104 -3 138 -12 137 -7 0
-38 -6 -68 -13z"/>
</g>
</svg>
