<?xml version="1.0" standalone="no"?>
<!DOCTYPE svg PUBLIC "-//W3C//DTD SVG 20010904//EN"
 "http://www.w3.org/TR/2001/REC-SVG-20010904/DTD/svg10.dtd">
<svg version="1.0" xmlns="http://www.w3.org/2000/svg"
 width="700.000000pt" height="700.000000pt" viewBox="0 0 700.000000 700.000000"
 preserveAspectRatio="xMidYMid meet">
<metadata>
Created by potrace 1.11, written by Peter Selinger 2001-2013
</metadata>
<g transform="translate(0.000000,700.000000) scale(0.100000,-0.100000)"
fill="#000000" stroke="none">
<path d="M0 3500 l0 -3500 3500 0 3500 0 0 3500 0 3500 -3500 0 -3500 0 0
-3500z m4412 2177 c93 -46 139 -110 177 -252 12 -44 29 -104 37 -132 l15 -53
310 0 309 0 0 60 0 60 255 0 255 0 0 -59 0 -58 153 -6 c171 -7 235 -20 347
-75 106 -52 241 -187 292 -292 79 -163 73 -42 73 -1560 0 -1522 6 -1404 -76
-1567 -87 -174 -247 -299 -444 -347 -65 -15 -253 -16 -2640 -14 l-2570 3 -85
30 c-207 72 -354 224 -429 443 l-26 77 0 1365 c0 1529 -6 1409 73 1570 51 105
186 240 292 292 154 75 113 71 912 75 l717 4 15 52 c8 29 25 88 37 132 34 127
74 192 146 237 77 47 77 47 963 45 l835 -2 57 -28z"/>
<path d="M2644 5571 c-62 -28 -88 -71 -127 -208 l-35 -123 1018 0 1018 0 -35
123 c-39 137 -65 180 -127 208 -39 18 -81 19 -856 19 -775 0 -817 -1 -856 -19z"/>
<path d="M5310 5275 l0 -35 205 0 205 0 0 35 0 35 -205 0 -205 0 0 -35z"/>
<path d="M900 5076 c-173 -48 -312 -182 -367 -353 l-23 -74 0 -1343 c0 -1205
2 -1348 16 -1397 50 -168 166 -293 334 -359 l65 -25 2570 0 c2485 0 2572 1
2625 19 173 59 303 193 354 365 14 49 16 198 16 1399 l0 1343 -25 76 c-59 174
-194 302 -366 348 -46 13 -424 15 -2604 14 -2007 -1 -2560 -3 -2595 -13z
m2860 -272 c199 -33 426 -126 605 -248 118 -80 303 -265 383 -383 120 -178
198 -361 243 -573 30 -139 32 -416 6 -560 -102 -544 -492 -998 -1007 -1171
-183 -61 -265 -73 -490 -73 -225 0 -307 12 -490 73 -515 173 -906 628 -1007
1171 -26 144 -24 421 6 560 67 314 199 560 420 780 65 64 156 142 206 176 335
228 726 314 1125 248z m-2100 -219 l0 -165 -325 0 -325 0 0 165 0 165 325 0
325 0 0 -165z"/>
<path d="M3299 4670 c-555 -88 -1004 -496 -1134 -1031 -97 -401 -18 -808 222
-1141 75 -105 241 -264 344 -331 255 -166 473 -231 769 -231 297 0 519 67 770
232 105 70 268 226 343 330 454 630 304 1504 -333 1941 -147 101 -284 162
-464 207 -85 22 -129 26 -281 29 -99 2 -205 0 -236 -5z m694 -542 c115 -78
337 -313 337 -357 0 -6 -23 -22 -52 -37 -45 -23 -52 -24 -60 -10 -47 84 -197
236 -303 306 -27 18 -52 34 -53 36 -6 4 52 104 61 104 4 0 36 -19 70 -42z"/>
<path d="M1110 4585 l0 -75 230 0 230 0 0 75 0 75 -230 0 -230 0 0 -75z"/>
</g>
</svg>
