<?xml version="1.0" encoding="UTF-8"?>
<svg width="260px" height="180px" viewBox="0 0 260 180" version="1.1" xmlns="http://www.w3.org/2000/svg" xmlns:xlink="http://www.w3.org/1999/xlink">
    <!-- Generator: Sketch 53.1 (72631) - https://sketchapp.com -->
    <title>logo-dark</title>
    <desc>Created with Sketch.</desc>
    <g id="Page-1" stroke="none" stroke-width="1" fill="none" fill-rule="evenodd">
        <g id="logo-dark" transform="translate(0.000000, 3.000000)">
            <rect id="camera-frame" stroke="#DDDDDD" stroke-width="6" x="3" y="20" width="254" height="154" rx="25"></rect>
            <path d="M85,18 L87.9656774,7.32356136 C89.1679545,2.99536371 93.1087785,6.15425187e-15 97.6008565,5.32907052e-15 L162.399144,-1.77635684e-15 C166.891222,-2.60153819e-15 170.832045,2.99536371 172.034323,7.32356136 L175,18" id="camera-top" stroke="#DDDDDD" stroke-width="5" stroke-linecap="square"></path>
            <circle id="outer-lens" stroke="#DDDDDD" stroke-width="6" cx="130" cy="97" r="60"></circle>
            <circle id="inner-lens" fill="#CA5C13" cx="130" cy="97" r="50"></circle>
            <rect id="camera-flash" stroke="#DDDDDD" stroke-width="4" x="29" y="39" width="23" height="10"></rect>
            <rect id="camera-button" stroke="#DDDDDD" stroke-width="2" x="204" y="13" width="19" height="5"></rect>
            <path d="M164.540954,77.9125488 L160.189043,80.3844341 C158.408638,77.5298426 156.278019,74.8314116 153.797184,72.3505766 C151.078915,69.6323078 148.099406,67.3344985 144.939474,65.4571488 L147.409942,61.1077329 C150.95102,63.2024603 154.289239,65.7715636 157.332718,68.8150427 C160.138689,71.6210138 162.541434,74.6775173 164.540954,77.9125488 Z" id="glare" fill="#FFFFFF"></path>
        </g>
    </g>
</svg>