<?xml version="1.0" encoding="UTF-8"?>
<svg width="260px" height="225px" viewBox="0 0 260 225" version="1.1" xmlns="http://www.w3.org/2000/svg" xmlns:xlink="http://www.w3.org/1999/xlink">
    <!-- Generator: Sketch 53.1 (72631) - https://sketchapp.com -->
    <title>logo-and-name-dark</title>
    <desc>Created with Sketch.</desc>
    <g id="Page-1" stroke="none" stroke-width="1" fill="none" fill-rule="evenodd">
        <g id="logo-and-name-dark" transform="translate(0.000000, 3.000000)">
            <path d="M90.5838509,214 L90.5838509,191.73913 L93.9627329,191.73913 L93.9627329,195.664596 C94.4596298,194.306411 95.3540308,193.246381 96.6459627,192.484472 C97.8716417,191.722563 99.2463692,191.341615 100.770186,191.341615 L102.26087,191.341615 L102.26087,194.770186 L100.770186,194.770186 C98.8488517,194.770186 97.2256795,195.532083 95.9006211,197.055901 C94.6086892,198.513465 93.9627329,200.269141 93.9627329,202.322981 L93.9627329,214 L90.5838509,214 Z M104,202.670807 C104,199.126276 104.861275,196.294006 106.583851,194.173913 C108.306427,192.05382 110.592118,190.993789 113.440994,190.993789 C116.289869,190.993789 118.575561,192.05382 120.298137,194.173913 C122.020713,196.294006 122.881988,199.126276 122.881988,202.670807 L122.881988,203.813665 L107.378882,203.813665 C107.378882,206.09939 107.92546,207.921318 109.018634,209.279503 C110.144933,210.670814 111.619039,211.36646 113.440994,211.36646 C115.031064,211.36646 116.339539,210.952385 117.36646,210.124224 C118.39338,209.296062 118.973084,208.202905 119.10559,206.84472 L122.484472,206.84472 C122.285713,209.130446 121.358186,210.952374 119.701863,212.310559 C118.078667,213.668744 115.991731,214.347826 113.440994,214.347826 C110.592118,214.347826 108.306427,213.287795 106.583851,211.167702 C104.861275,209.047608 104,206.215339 104,202.670807 Z M107.378882,200.782609 L119.453416,200.782609 C119.287784,198.728768 118.658391,197.089033 117.565217,195.863354 C116.472044,194.637675 115.097317,194.024845 113.440994,194.024845 C111.784671,194.024845 110.409943,194.637675 109.31677,195.863354 C108.190471,197.089033 107.544514,198.728768 107.378882,200.782609 Z M125.416149,202.670807 C125.416149,199.126276 126.277424,196.294006 128,194.173913 C129.722576,192.05382 132.008267,190.993789 134.857143,190.993789 C137.706018,190.993789 139.99171,192.05382 141.714286,194.173913 C143.436862,196.294006 144.298137,199.126276 144.298137,202.670807 L144.298137,203.813665 L128.795031,203.813665 C128.795031,206.09939 129.341609,207.921318 130.434783,209.279503 C131.561082,210.670814 133.035188,211.36646 134.857143,211.36646 C136.447213,211.36646 137.755688,210.952385 138.782609,210.124224 C139.809529,209.296062 140.389233,208.202905 140.521739,206.84472 L143.900621,206.84472 C143.701862,209.130446 142.774335,210.952374 141.118012,212.310559 C139.494816,213.668744 137.40788,214.347826 134.857143,214.347826 C132.008267,214.347826 129.722576,213.287795 128,211.167702 C126.277424,209.047608 125.416149,206.215339 125.416149,202.670807 Z M128.795031,200.782609 L140.869565,200.782609 C140.703933,198.728768 140.07454,197.089033 138.981366,195.863354 C137.888193,194.637675 136.513466,194.024845 134.857143,194.024845 C133.20082,194.024845 131.826092,194.637675 130.732919,195.863354 C129.60662,197.089033 128.960663,198.728768 128.795031,200.782609 Z M148.024845,214 L148.024845,183.78882 L151.403727,183.78882 L151.403727,214 L148.024845,214 Z M154.335404,191.73913 L157.714286,191.73913 L165.118012,209.677019 L171.726708,191.73913 L175.10559,191.73913 L165.267081,217.776398 C164.836437,218.96895 164.057977,219.896477 162.931677,220.559006 C161.838504,221.221535 160.612843,221.552795 159.254658,221.552795 L156.968944,221.552795 L156.968944,218.521739 L159.254658,218.521739 C160.281579,218.521739 161.17598,218.057976 161.937888,217.130435 C162.600417,216.3354 163.097307,215.291932 163.428571,214 L154.335404,191.73913 Z" id="reely" fill="#21BB61" fill-rule="nonzero"></path>
            <rect id="camera-frame" stroke="#DDDDDD" stroke-width="6" x="3" y="20" width="254" height="154" rx="25"></rect>
            <path d="M85,18 L87.9656774,7.32356136 C89.1679545,2.99536371 93.1087785,6.15425187e-15 97.6008565,5.32907052e-15 L162.399144,-1.77635684e-15 C166.891222,-2.60153819e-15 170.832045,2.99536371 172.034323,7.32356136 L175,18" id="camera-top" stroke="#DDDDDD" stroke-width="5" stroke-linecap="square"></path>
            <circle id="outer-lens" stroke="#DDDDDD" stroke-width="6" cx="130" cy="97" r="60"></circle>
            <circle id="inner-lens" fill="#CA5C13" cx="130" cy="97" r="50"></circle>
            <rect id="camera-flash" stroke="#DDDDDD" stroke-width="4" x="29" y="39" width="23" height="10"></rect>
            <rect id="camera-button" stroke="#DDDDDD" stroke-width="2" x="204" y="13" width="19" height="5"></rect>
            <path d="M164.540954,77.9125488 L160.189043,80.3844341 C158.408638,77.5298426 156.278019,74.8314116 153.797184,72.3505766 C151.078915,69.6323078 148.099406,67.3344985 144.939474,65.4571488 L147.409942,61.1077329 C150.95102,63.2024603 154.289239,65.7715636 157.332718,68.8150427 C160.138689,71.6210138 162.541434,74.6775173 164.540954,77.9125488 Z" id="glare" fill="#FFFFFF"></path>
        </g>
    </g>
</svg>