<?xml version="1.0" encoding="UTF-8" standalone="no"?>
<svg width="32px" height="32px" viewBox="0 0 32 32" version="1.1" xmlns="http://www.w3.org/2000/svg" xmlns:xlink="http://www.w3.org/1999/xlink">
    <title>Check Mark Icon</title>
    <defs></defs>
    <g id="Page-1" stroke="none" stroke-width="1" fill="none" fill-rule="evenodd">
        <g id="Artboard-6" fill="#000000">
            <path d="M14.5810225,21.4535604 C14.7483703,21.4100207 14.90653,21.3223046 15.0377989,21.1910358 L22.6564144,13.5724202 C23.0438935,13.1849411 23.0459704,12.5437672 22.6517873,12.1495842 L21.2508234,10.7486202 C20.8505898,10.3483867 20.2196149,10.3523655 19.8279873,10.7439931 L13.743097,16.8288834 L11.9209299,15.0067163 C11.5266963,14.6124827 10.8914905,14.6085095 10.4958207,15.0041793 L9.50417927,15.9958207 C9.11134683,16.3886532 9.108137,17.0223506 9.50671635,17.4209299 L13.3719633,21.2861769 C13.7003553,21.6145689 14.1959506,21.6721711 14.5810225,21.4535604 Z M16,29 C8.82029825,29 3,23.1797017 3,16 C3,8.82029825 8.82029825,3 16,3 C23.1797017,3 29,8.82029825 29,16 C29,23.1797017 23.1797017,29 16,29 Z" id="Combined-Shape"></path>
        </g>
    </g>
</svg>
