<?xml version="1.0" encoding="UTF-8" standalone="no"?>
<svg width="32px" height="32px" viewBox="0 0 32 32" version="1.1" xmlns="http://www.w3.org/2000/svg" xmlns:xlink="http://www.w3.org/1999/xlink">
    <title>Pencil With Squares Icon</title>
    <defs></defs>
    <g id="Page-1" stroke="none" stroke-width="1" fill="none" fill-rule="evenodd">
        <g id="Artboard-7">
            <g id="Group-2" transform="translate(0.250000, 1.250000)">
                <g id="pencil" transform="translate(15.483871, 14.967742) rotate(-45.000000) translate(-15.483871, -14.967742) translate(3.096774, 11.354839)">
                    <path d="M22.6199158,1.20430108 C23.8096906,1.20430108 24.7741935,2.28266899 24.7741935,3.61290323 C24.7741935,4.94313746 23.8096906,6.02150538 22.6199158,6.02150538 L22.6199158,1.20430108 Z" id="Combined-Shape" fill="#000000"></path>
                    <g id="Group" transform="translate(3.769986, 0.000000)" stroke="#000000" stroke-width="1.04347826" stroke-linecap="square">
                        <path d="M1.61570827,1.80645161 L17.772791,1.80645161" id="Line"></path>
                        <path d="M1.61570827,3.61290323 L17.772791,3.61290323" id="Line"></path>
                        <path d="M1.61570827,5.41935484 L17.772791,5.41935484" id="Line"></path>
                        <path d="M17.772791,1.80645161 L17.772791,4.21505376" id="Line"></path>
                        <path d="M1.61570827,1.80645161 L1.61570827,4.21505376" id="Line"></path>
                    </g>
                    <path d="M-0.254324451,3.61290323 L4.56287985,1.45862553 L4.56287985,5.76718093 L-0.254324451,3.61290323 Z M2.02711547,3.61290323 L4.43571763,4.69004208 L4.43571763,2.53576438 L2.02711547,3.61290323 Z" id="Combined-Shape" fill="#000000"></path>
                </g>
                <rect id="Rectangle-3" stroke="#000000" x="0.5" y="3.84859016" width="27.6099177" height="24.5546356" rx="2"></rect>
                <rect id="Rectangle-3" stroke="#000000" x="3.22475406" y="1.0091862" width="27.6099177" height="24.5546356" rx="2"></rect>
            </g>
        </g>
    </g>
</svg>
