<?xml version="1.0" encoding="UTF-8" standalone="no"?>
<svg width="32px" height="32px" viewBox="0 0 32 32" version="1.1" xmlns="http://www.w3.org/2000/svg" xmlns:xlink="http://www.w3.org/1999/xlink">
    <title>Pencil Icon</title>
    <defs></defs>
    <g id="Page-1" stroke="none" stroke-width="1" fill="none" fill-rule="evenodd">
        <g id="Artboard-5">
            <g id="Group-2" transform="translate(16.435029, 15.435029) rotate(-45.000000) translate(-16.435029, -15.435029) translate(1.435029, 11.435029)">
                <path d="M27.3913043,1.33333333 C28.8320472,1.33333333 30,2.52724067 30,4 C30,5.47275933 28.8320472,6.66666667 27.3913043,6.66666667 L27.3913043,1.33333333 Z" id="Combined-Shape" fill="#000000"></path>
                <g id="Group" transform="translate(4.565217, 0.000000)" stroke="#000000" stroke-width="1.30434783" stroke-linecap="square">
                    <path d="M1.95652174,2 L21.5217391,2" id="Line"></path>
                    <path d="M1.95652174,4 L21.5217391,4" id="Line"></path>
                    <path d="M1.95652174,6 L21.5217391,6" id="Line"></path>
                    <path d="M21.5217391,2 L21.5217391,4.66666667" id="Line"></path>
                    <path d="M1.95652174,2 L1.95652174,4.66666667" id="Line"></path>
                </g>
                <path d="M-0.0579710145,4 L5.27536232,1.39130435 L5.27536232,6.60869565 L-0.0579710145,4 Z M2.57971014,4 L5.24637681,5.30434783 L5.24637681,2.69565217 L2.57971014,4 Z" id="Combined-Shape" fill="#000000"></path>
            </g>
        </g>
    </g>
</svg>
