<?xml version="1.0" encoding="UTF-8"?>
<svg width="100px" height="100px" viewBox="0 0 100 100" version="1.1" xmlns="http://www.w3.org/2000/svg" xmlns:xlink="http://www.w3.org/1999/xlink">
    <!-- Generator: Sketch 53.1 (72631) - https://sketchapp.com -->
    <title>icon-refresh</title>
    <desc>Created with Sketch.</desc>
    <g id="icon-refresh" stroke="none" stroke-width="1" fill="none" fill-rule="evenodd">
        <path d="M35.5764413,7.36126098 L38.2645075,15.04145 C23.5615994,20.1139791 13,34.0735927 13,50.5 C13,71.2106781 29.7893219,88 50.5,88 C71.2106781,88 88,71.2106781 88,50.5 C88,34.0735927 77.4384006,20.1139791 62.7354925,15.04145 L65.3144338,7.67304628 C82.6278758,13.9384955 95,30.5244156 95,50 C95,74.8528137 74.8528137,95 50,95 C25.1471863,95 5,74.8528137 5,50 C5,30.191978 17.7980998,13.3731124 35.5764413,7.36126098 Z" id="Combined-Shape" fill="#D8D8D8" transform="translate(50.000000, 51.180630) rotate(19.000000) translate(-50.000000, -51.180630) "></path>
        <polygon id="Triangle" fill="#D8D8D8" transform="translate(56.000000, 9.500000) rotate(90.000000) translate(-56.000000, -9.500000) " points="56 3.5 65 15.5 47 15.5"></polygon>
    </g>
</svg>